<svg width="58" height="58" viewBox="0 0 58 58" fill="none" xmlns="http://www.w3.org/2000/svg">
<rect x="1" y="1" width="56" height="56" fill="white" stroke="black" stroke-width="2"/>
<path d="M41.017 25.384C40.921 26.416 40.729 27.472 40.441 28.552C40.177 29.632 39.781 30.688 39.253 31.72C38.749 32.752 38.137 33.748 37.417 34.708C36.721 35.668 35.941 36.556 35.077 37.372C34.213 38.188 33.289 38.872 32.305 39.424C30.193 40.672 28.153 41.116 26.185 40.756C25.753 41.692 25.105 42.28 24.241 42.52C23.401 42.784 22.561 42.784 21.721 42.52C20.905 42.28 20.185 41.812 19.561 41.116C18.937 40.42 18.625 39.472 18.625 38.272C18.625 37.048 18.709 35.8 18.877 34.528C19.045 33.256 19.273 32.032 19.561 30.856C20.017 28.912 20.581 27.088 21.253 25.384C22.837 21.52 23.737 18.808 23.953 17.248C24.265 15.16 24.841 13.864 25.681 13.36C27.073 12.544 28.393 12.196 29.641 12.316C30.889 12.436 32.017 12.736 33.025 13.216C34.681 14.008 36.469 15.34 38.389 17.212C40.501 19.252 41.377 21.976 41.017 25.384ZM26.869 36.184C28.093 35.56 29.077 34.924 29.821 34.276C30.589 33.604 31.309 32.992 31.981 32.44C33.013 31.408 33.769 30.184 34.249 28.768C35.305 25.648 34.633 23.284 32.233 21.676C31.873 21.412 31.333 21.052 30.613 20.596C30.277 21.364 30.025 22.168 29.857 23.008C29.713 23.848 29.509 24.664 29.245 25.456L28.273 28.624L27.481 32.044C27.433 32.524 27.361 32.992 27.265 33.448C27.169 33.88 27.085 34.336 27.013 34.816L26.869 36.184Z" fill="black"/>
</svg>
